<svg width="43" height="28" viewBox="0 0 43 28" fill="none" xmlns="http://www.w3.org/2000/svg">
<mask id="path-1-inside-1_18_65" fill="white">
<path d="M26.4741 7.64414C27.9099 10.462 28.3493 13.6829 27.7207 16.7824C27.0922 19.8818 25.4328 22.6772 23.0128 24.7131C20.5927 26.749 17.5547 27.9056 14.3934 27.9945C11.2321 28.0833 8.13385 27.0992 5.60327 25.2025C3.07269 23.3057 1.25887 20.608 0.45723 17.5487C-0.344408 14.4895 -0.0866322 11.2489 1.18857 8.35489C2.46378 5.46085 4.68128 3.08382 7.47991 1.61096C10.2785 0.1381 13.4934 -0.343813 16.6009 0.243711L15.9173 3.85901C13.6265 3.4259 11.2566 3.78116 9.19346 4.86693C7.13034 5.95271 5.49562 7.70503 4.55556 9.83849C3.61549 11.9719 3.42546 14.3608 4.01642 16.6161C4.60738 18.8713 5.9445 20.86 7.81002 22.2583C9.67554 23.6566 11.9595 24.3821 14.29 24.3166C16.6205 24.2511 18.8601 23.3985 20.6441 21.8976C22.4281 20.3967 23.6514 18.336 24.1148 16.0511C24.5781 13.7663 24.2542 11.3918 23.1958 9.31453L26.4741 7.64414Z"/>
</mask>
<path d="M26.4741 7.64414C27.9099 10.462 28.3493 13.6829 27.7207 16.7824C27.0922 19.8818 25.4328 22.6772 23.0128 24.7131C20.5927 26.749 17.5547 27.9056 14.3934 27.9945C11.2321 28.0833 8.13385 27.0992 5.60327 25.2025C3.07269 23.3057 1.25887 20.608 0.45723 17.5487C-0.344408 14.4895 -0.0866322 11.2489 1.18857 8.35489C2.46378 5.46085 4.68128 3.08382 7.47991 1.61096C10.2785 0.1381 13.4934 -0.343813 16.6009 0.243711L15.9173 3.85901C13.6265 3.4259 11.2566 3.78116 9.19346 4.86693C7.13034 5.95271 5.49562 7.70503 4.55556 9.83849C3.61549 11.9719 3.42546 14.3608 4.01642 16.6161C4.60738 18.8713 5.9445 20.86 7.81002 22.2583C9.67554 23.6566 11.9595 24.3821 14.29 24.3166C16.6205 24.2511 18.8601 23.3985 20.6441 21.8976C22.4281 20.3967 23.6514 18.336 24.1148 16.0511C24.5781 13.7663 24.2542 11.3918 23.1958 9.31453L26.4741 7.64414Z" stroke="#FFFAFA" stroke-width="22" mask="url(#path-1-inside-1_18_65)"/>
<mask id="path-2-inside-2_18_65" fill="white">
<path d="M15.8443 18.7883C14.7627 15.8165 14.7191 12.566 15.7206 9.56624C16.7222 6.56649 18.7099 3.99423 21.36 2.26839C24.0101 0.542554 27.1665 -0.235166 30.3151 0.0619008C33.4636 0.358967 36.4188 1.71332 38.6994 3.90436C40.98 6.09541 42.4515 8.99406 42.8743 12.1282C43.2972 15.2623 42.6464 18.4473 41.028 21.1644C39.4096 23.8814 36.9189 25.9705 33.9617 27.0913C31.0044 28.2121 27.7548 28.2986 24.742 27.3368L25.8611 23.8317C28.082 24.5408 30.4776 24.477 32.6577 23.6508C34.8377 22.8245 36.6738 21.2845 37.8669 19.2815C39.06 17.2785 39.5397 14.9306 39.228 12.6201C38.9163 10.3097 37.8315 8.17282 36.1503 6.55761C34.4691 4.94239 32.2905 3.94398 29.9695 3.72498C27.6484 3.50599 25.3215 4.07932 23.3679 5.35158C21.4143 6.62385 19.9489 8.5201 19.2106 10.7315C18.4722 12.9429 18.5044 15.3391 19.3018 17.5299L15.8443 18.7883Z"/>
</mask>
<path d="M15.8443 18.7883C14.7627 15.8165 14.7191 12.566 15.7206 9.56624C16.7222 6.56649 18.7099 3.99423 21.36 2.26839C24.0101 0.542554 27.1665 -0.235166 30.3151 0.0619008C33.4636 0.358967 36.4188 1.71332 38.6994 3.90436C40.98 6.09541 42.4515 8.99406 42.8743 12.1282C43.2972 15.2623 42.6464 18.4473 41.028 21.1644C39.4096 23.8814 36.9189 25.9705 33.9617 27.0913C31.0044 28.2121 27.7548 28.2986 24.742 27.3368L25.8611 23.8317C28.082 24.5408 30.4776 24.477 32.6577 23.6508C34.8377 22.8245 36.6738 21.2845 37.8669 19.2815C39.06 17.2785 39.5397 14.9306 39.228 12.6201C38.9163 10.3097 37.8315 8.17282 36.1503 6.55761C34.4691 4.94239 32.2905 3.94398 29.9695 3.72498C27.6484 3.50599 25.3215 4.07932 23.3679 5.35158C21.4143 6.62385 19.9489 8.5201 19.2106 10.7315C18.4722 12.9429 18.5044 15.3391 19.3018 17.5299L15.8443 18.7883Z" stroke="#FFFAFA" stroke-width="22" mask="url(#path-2-inside-2_18_65)"/>
</svg>
